<mxfile modified="2022-05-02T08:02:53.551Z" host="app.diagrams.net" agent="5.0 (Windows NT 10.0; Win64; x64) AppleWebKit/537.36 (KHTML, like Gecko) Chrome/100.0.4896.127 Safari/537.36 Edg/100.0.1185.50" etag="faWnR3W_up9An0mto2S5" compressed="false" version="17.5.0" type="google">
  <diagram id="Ibe8ycbsjAZD19gt6E8A" name="Page-6">
    <mxGraphModel grid="1" page="1" gridSize="10" guides="1" tooltips="1" connect="1" arrows="1" fold="1" pageScale="1" pageWidth="827" pageHeight="1169" math="0" shadow="0">
      <root>
        <mxCell id="kYkYFSKdLo87Zzff4D4S-0" />
        <mxCell id="kYkYFSKdLo87Zzff4D4S-1" parent="kYkYFSKdLo87Zzff4D4S-0" />
        <mxCell id="kYkYFSKdLo87Zzff4D4S-23" value="Assessments" style="rounded=1;whiteSpace=wrap;html=1;recursiveResize=0;container=1;collapsible=0;verticalAlign=top;absoluteArcSize=1;arcSize=6;" vertex="1" parent="kYkYFSKdLo87Zzff4D4S-1">
          <mxGeometry x="330" y="160" width="200" height="80" as="geometry" />
        </mxCell>
        <mxCell id="kYkYFSKdLo87Zzff4D4S-24" value="Privacy Impact Assessment" style="rounded=0;whiteSpace=wrap;html=1;" vertex="1" parent="kYkYFSKdLo87Zzff4D4S-23">
          <mxGeometry x="10" y="30" width="80" height="40" as="geometry" />
        </mxCell>
        <mxCell id="kYkYFSKdLo87Zzff4D4S-25" value="Security Risk Assessment" style="rounded=0;whiteSpace=wrap;html=1;" vertex="1" parent="kYkYFSKdLo87Zzff4D4S-23">
          <mxGeometry x="110" y="30" width="80" height="40" as="geometry" />
        </mxCell>
        <mxCell id="kYkYFSKdLo87Zzff4D4S-26" value="Solution&lt;br&gt;Architecture&lt;br&gt;Documentation" style="rounded=1;whiteSpace=wrap;html=1;recursiveResize=0;container=1;collapsible=0;verticalAlign=top;absoluteArcSize=1;arcSize=6;" vertex="1" parent="kYkYFSKdLo87Zzff4D4S-1">
          <mxGeometry x="120" y="250" width="410" height="180" as="geometry" />
        </mxCell>
        <mxCell id="kYkYFSKdLo87Zzff4D4S-27" value="Technical Architecture" style="rounded=0;whiteSpace=wrap;html=1;" vertex="1" parent="kYkYFSKdLo87Zzff4D4S-26">
          <mxGeometry x="110" y="60" width="80" height="40" as="geometry" />
        </mxCell>
        <mxCell id="kYkYFSKdLo87Zzff4D4S-28" style="edgeStyle=orthogonalEdgeStyle;rounded=0;orthogonalLoop=1;jettySize=auto;html=1;entryX=0.5;entryY=0;entryDx=0;entryDy=0;startArrow=diamondThin;startFill=0;exitX=0.5;exitY=1;exitDx=0;exitDy=0;" edge="1" parent="kYkYFSKdLo87Zzff4D4S-26" source="kYkYFSKdLo87Zzff4D4S-29" target="kYkYFSKdLo87Zzff4D4S-30">
          <mxGeometry relative="1" as="geometry" />
        </mxCell>
        <mxCell id="kYkYFSKdLo87Zzff4D4S-29" value="Security Architecture" style="rounded=0;whiteSpace=wrap;html=1;" vertex="1" parent="kYkYFSKdLo87Zzff4D4S-26">
          <mxGeometry x="270" y="60" width="80" height="40" as="geometry" />
        </mxCell>
        <mxCell id="kYkYFSKdLo87Zzff4D4S-30" value="Access Security Matrix" style="rounded=0;whiteSpace=wrap;html=1;" vertex="1" parent="kYkYFSKdLo87Zzff4D4S-26">
          <mxGeometry x="270" y="130" width="80" height="40" as="geometry" />
        </mxCell>
        <mxCell id="kYkYFSKdLo87Zzff4D4S-31" value="Information Architecture" style="rounded=0;whiteSpace=wrap;html=1;" vertex="1" parent="kYkYFSKdLo87Zzff4D4S-26">
          <mxGeometry x="10" y="60" width="80" height="40" as="geometry" />
        </mxCell>
        <mxCell id="kYkYFSKdLo87Zzff4D4S-32" style="edgeStyle=orthogonalEdgeStyle;rounded=0;orthogonalLoop=1;jettySize=auto;html=1;entryX=0.5;entryY=0;entryDx=0;entryDy=0;startArrow=none;startFill=0;" edge="1" parent="kYkYFSKdLo87Zzff4D4S-1" source="kYkYFSKdLo87Zzff4D4S-24" target="kYkYFSKdLo87Zzff4D4S-29">
          <mxGeometry relative="1" as="geometry" />
        </mxCell>
        <mxCell id="kYkYFSKdLo87Zzff4D4S-33" style="edgeStyle=orthogonalEdgeStyle;rounded=0;orthogonalLoop=1;jettySize=auto;html=1;startArrow=none;startFill=0;" edge="1" parent="kYkYFSKdLo87Zzff4D4S-1" source="kYkYFSKdLo87Zzff4D4S-25" target="kYkYFSKdLo87Zzff4D4S-29">
          <mxGeometry relative="1" as="geometry" />
        </mxCell>
        <mxCell id="kYkYFSKdLo87Zzff4D4S-34" value="Operational Documentation" style="rounded=1;whiteSpace=wrap;html=1;recursiveResize=0;container=1;collapsible=0;verticalAlign=top;absoluteArcSize=1;arcSize=6;" vertex="1" parent="kYkYFSKdLo87Zzff4D4S-1">
          <mxGeometry x="120" y="660" width="410" height="140" as="geometry" />
        </mxCell>
        <mxCell id="kYkYFSKdLo87Zzff4D4S-35" value="Operations Support Manual" style="rounded=0;whiteSpace=wrap;html=1;" vertex="1" parent="kYkYFSKdLo87Zzff4D4S-34">
          <mxGeometry x="14" y="90" width="80" height="40" as="geometry" />
        </mxCell>
        <mxCell id="kYkYFSKdLo87Zzff4D4S-36" value="Disaster Recovery Manual" style="rounded=0;whiteSpace=wrap;html=1;" vertex="1" parent="kYkYFSKdLo87Zzff4D4S-34">
          <mxGeometry x="214" y="30" width="80" height="40" as="geometry" />
        </mxCell>
        <mxCell id="kYkYFSKdLo87Zzff4D4S-37" value="Standard Operating Procedures" style="rounded=0;whiteSpace=wrap;html=1;" vertex="1" parent="kYkYFSKdLo87Zzff4D4S-34">
          <mxGeometry x="14" y="30" width="80" height="40" as="geometry" />
        </mxCell>
        <mxCell id="kYkYFSKdLo87Zzff4D4S-38" value="Release Management Process" style="rounded=0;whiteSpace=wrap;html=1;" vertex="1" parent="kYkYFSKdLo87Zzff4D4S-34">
          <mxGeometry x="114" y="30" width="80" height="40" as="geometry" />
        </mxCell>
        <mxCell id="kYkYFSKdLo87Zzff4D4S-39" value="Service Level Agreements" style="rounded=0;whiteSpace=wrap;html=1;" vertex="1" parent="kYkYFSKdLo87Zzff4D4S-34">
          <mxGeometry x="114" y="90" width="80" height="40" as="geometry" />
        </mxCell>
        <mxCell id="kYkYFSKdLo87Zzff4D4S-40" value="Implementation Documentation" style="rounded=1;whiteSpace=wrap;html=1;recursiveResize=0;container=1;collapsible=0;verticalAlign=top;absoluteArcSize=1;arcSize=6;" vertex="1" parent="kYkYFSKdLo87Zzff4D4S-1">
          <mxGeometry x="330" y="440" width="200" height="210" as="geometry" />
        </mxCell>
        <mxCell id="kYkYFSKdLo87Zzff4D4S-41" value="Virtualisation Schedule" style="rounded=0;whiteSpace=wrap;html=1;" vertex="1" parent="kYkYFSKdLo87Zzff4D4S-40">
          <mxGeometry x="10" y="40" width="80" height="40" as="geometry" />
        </mxCell>
        <mxCell id="kYkYFSKdLo87Zzff4D4S-42" value="Network Schedule" style="rounded=0;whiteSpace=wrap;html=1;" vertex="1" parent="kYkYFSKdLo87Zzff4D4S-40">
          <mxGeometry x="110" y="40" width="80" height="40" as="geometry" />
        </mxCell>
        <mxCell id="kYkYFSKdLo87Zzff4D4S-43" value="Certificate Schedule" style="rounded=0;whiteSpace=wrap;html=1;" vertex="1" parent="kYkYFSKdLo87Zzff4D4S-40">
          <mxGeometry x="10" y="100" width="80" height="40" as="geometry" />
        </mxCell>
        <mxCell id="kYkYFSKdLo87Zzff4D4S-44" value="AD Group &amp;amp; Account Schedule" style="rounded=0;whiteSpace=wrap;html=1;" vertex="1" parent="kYkYFSKdLo87Zzff4D4S-40">
          <mxGeometry x="110" y="100" width="80" height="40" as="geometry" />
        </mxCell>
        <mxCell id="kYkYFSKdLo87Zzff4D4S-45" value="Build Guides" style="rounded=0;whiteSpace=wrap;html=1;" vertex="1" parent="kYkYFSKdLo87Zzff4D4S-40">
          <mxGeometry x="10" y="160" width="80" height="40" as="geometry" />
        </mxCell>
        <mxCell id="kYkYFSKdLo87Zzff4D4S-46" value="Deployment Guides" style="rounded=0;whiteSpace=wrap;html=1;" vertex="1" parent="kYkYFSKdLo87Zzff4D4S-40">
          <mxGeometry x="110" y="160" width="80" height="40" as="geometry" />
        </mxCell>
        <mxCell id="kYkYFSKdLo87Zzff4D4S-47" value="Detailed Design Documentation" style="rounded=1;whiteSpace=wrap;html=1;recursiveResize=0;container=1;collapsible=0;verticalAlign=top;absoluteArcSize=1;arcSize=6;" vertex="1" parent="kYkYFSKdLo87Zzff4D4S-1">
          <mxGeometry x="120" y="440" width="190" height="210" as="geometry" />
        </mxCell>
        <mxCell id="kYkYFSKdLo87Zzff4D4S-48" value="Detailed Design" style="rounded=0;whiteSpace=wrap;html=1;" vertex="1" parent="kYkYFSKdLo87Zzff4D4S-47">
          <mxGeometry x="10" y="40" width="80" height="40" as="geometry" />
        </mxCell>
        <mxCell id="kYkYFSKdLo87Zzff4D4S-49" value="Developer Guide" style="rounded=0;whiteSpace=wrap;html=1;" vertex="1" parent="kYkYFSKdLo87Zzff4D4S-47">
          <mxGeometry x="100" y="40" width="80" height="40" as="geometry" />
        </mxCell>
        <mxCell id="kYkYFSKdLo87Zzff4D4S-50" value="Requirements Documentation" style="rounded=1;whiteSpace=wrap;html=1;recursiveResize=0;container=1;collapsible=0;verticalAlign=top;absoluteArcSize=1;arcSize=6;" vertex="1" parent="kYkYFSKdLo87Zzff4D4S-1">
          <mxGeometry x="120" y="160" width="200" height="80" as="geometry" />
        </mxCell>
        <mxCell id="kYkYFSKdLo87Zzff4D4S-51" value="Quality Requirements" style="rounded=0;whiteSpace=wrap;html=1;" vertex="1" parent="kYkYFSKdLo87Zzff4D4S-50">
          <mxGeometry x="10" y="30" width="80" height="40" as="geometry" />
        </mxCell>
        <mxCell id="kYkYFSKdLo87Zzff4D4S-52" value="Business Requirements" style="rounded=0;whiteSpace=wrap;html=1;" vertex="1" parent="kYkYFSKdLo87Zzff4D4S-50">
          <mxGeometry x="110" y="30" width="80" height="40" as="geometry" />
        </mxCell>
        <mxCell id="kYkYFSKdLo87Zzff4D4S-53" style="edgeStyle=orthogonalEdgeStyle;rounded=0;orthogonalLoop=1;jettySize=auto;html=1;entryX=0.5;entryY=0;entryDx=0;entryDy=0;startArrow=none;startFill=0;" edge="1" parent="kYkYFSKdLo87Zzff4D4S-1" source="kYkYFSKdLo87Zzff4D4S-51" target="kYkYFSKdLo87Zzff4D4S-27">
          <mxGeometry relative="1" as="geometry">
            <Array as="points">
              <mxPoint x="170" y="280" />
              <mxPoint x="270" y="280" />
            </Array>
          </mxGeometry>
        </mxCell>
        <mxCell id="kYkYFSKdLo87Zzff4D4S-54" style="edgeStyle=orthogonalEdgeStyle;rounded=0;orthogonalLoop=1;jettySize=auto;html=1;entryX=0.5;entryY=0;entryDx=0;entryDy=0;startArrow=none;startFill=0;" edge="1" parent="kYkYFSKdLo87Zzff4D4S-1" source="kYkYFSKdLo87Zzff4D4S-52" target="kYkYFSKdLo87Zzff4D4S-27">
          <mxGeometry relative="1" as="geometry" />
        </mxCell>
        <mxCell id="kYkYFSKdLo87Zzff4D4S-55" style="edgeStyle=orthogonalEdgeStyle;rounded=0;orthogonalLoop=1;jettySize=auto;html=1;startArrow=none;startFill=0;" edge="1" parent="kYkYFSKdLo87Zzff4D4S-1" source="kYkYFSKdLo87Zzff4D4S-52" target="kYkYFSKdLo87Zzff4D4S-31">
          <mxGeometry relative="1" as="geometry">
            <Array as="points">
              <mxPoint x="270" y="280" />
              <mxPoint x="170" y="280" />
            </Array>
          </mxGeometry>
        </mxCell>
        <mxCell id="kYkYFSKdLo87Zzff4D4S-56" style="edgeStyle=orthogonalEdgeStyle;rounded=0;orthogonalLoop=1;jettySize=auto;html=1;entryX=0.5;entryY=0;entryDx=0;entryDy=0;startArrow=none;startFill=0;" edge="1" parent="kYkYFSKdLo87Zzff4D4S-1" source="kYkYFSKdLo87Zzff4D4S-51" target="kYkYFSKdLo87Zzff4D4S-31">
          <mxGeometry relative="1" as="geometry" />
        </mxCell>
        <mxCell id="kYkYFSKdLo87Zzff4D4S-57" value="&lt;font style=&quot;font-size: 12px&quot;&gt;Diagram: Deliverables - Documentation Deliverables, simplied from&amp;nbsp; ISO-15289:2019&lt;br&gt;&lt;/font&gt;" style="text;strokeColor=none;fillColor=none;html=1;fontSize=12;fontStyle=2;verticalAlign=middle;align=left;shadow=0;glass=0;comic=0;opacity=30;fontColor=#808080;" vertex="1" parent="kYkYFSKdLo87Zzff4D4S-1">
          <mxGeometry x="120" y="820" width="520" height="20" as="geometry" />
        </mxCell>
      </root>
    </mxGraphModel>
  </diagram>
</mxfile>
